<?xml version="1.0" encoding="UTF-8"?>
<svg width="47px" height="47px" viewBox="0 0 47 47" version="1.1" xmlns="http://www.w3.org/2000/svg" xmlns:xlink="http://www.w3.org/1999/xlink">
    <!-- Generator: Sketch 52.2 (67145) - http://www.bohemiancoding.com/sketch -->
    <title>socail_google</title>
    <desc>Created with Sketch.</desc>
    <defs>
        <circle id="path-1" cx="22.5" cy="22.5" r="22.5"></circle>
    </defs>
    <g id="WEB-APP---THE-NIL-PROJECT" stroke="none" stroke-width="1" fill="none" fill-rule="evenodd">
        <g id="05" transform="translate(-1011.000000, -801.000000)">
            <g id="socail_google" transform="translate(1012.000000, 802.000000)">
                <mask id="mask-2" fill="white">
                    <use xlink:href="#path-1"></use>
                </mask>
                <use id="Mask" stroke="#000000" stroke-width="2" xlink:href="#path-1"></use>
                <rect id="Rectangle" fill="#FFFFFF" mask="url(#mask-2)" x="0" y="0" width="45" height="45"></rect>
                <g id="google_search" mask="url(#mask-2)">
                    <g transform="translate(11.000000, 11.000000)" id="Path">
                        <path d="M5.55761875,14 L5.55761875,16.9365907 L2.11323698,17 C1.08387239,15.3385191 0.5,13.4375737 0.5,11.4174942 C0.5,9.46409119 1.04590641,7.62199958 2.01356306,6 L5.08077025,6.48923656 L5.55761875,9 C5.27646955,9.71328592 5.22739931,13.2356369 5.55761875,14 Z" fill="#FBBB00"></path>
                        <path d="M22.3034804,10 C22.4326482,10.6883724 22.5,11.3992815 22.5,12.1258375 C22.5,12.9405404 22.415338,13.7352402 22.254054,14.5018023 C21.7065407,17.1103361 20.2758975,19.3881081 18.2940505,21 L18.2934354,20.9993777 L15.0842746,20.8337078 L14.6300784,17.9650451 C15.9451296,17.1847476 16.9728484,15.9636267 17.5142109,14.5018023 L11.5,14.5018023 L11.5,10 L17.6019483,10 L22.3034804,10 Z" fill="#518EF8"></path>
                        <path d="M18.999383,20.4955255 L19,20.4961474 C17.0666454,22.0626879 14.6106756,23 11.9371808,23 C7.64084219,23 3.90550293,20.5792656 2,17.0168665 L5.65601491,14 C6.60874434,16.5632037 9.06158524,18.3878504 11.9371808,18.3878504 C13.1731863,18.3878504 14.3311454,18.051024 15.324771,17.4630216 L18.999383,20.4955255 Z" fill="#28B446"></path>
                        <path d="M19,2.56809203 L15.3921874,5.52660934 C14.377051,4.89103532 13.1770715,4.52387869 11.8914786,4.52387869 C8.98858437,4.52387869 6.52197912,6.39569777 5.62860689,9 L2.00060904,6.02492447 L2,6.02492447 C3.85347766,2.44551766 7.58731767,0 11.8914786,0 C14.5936512,0 17.0712626,0.964123867 19,2.56809203 Z" fill="#F14336"></path>
                    </g>
                </g>
            </g>
        </g>
    </g>
</svg>