<?xml version="1.0" encoding="UTF-8"?>
<svg width="45px" height="45px" viewBox="0 0 45 45" version="1.1" xmlns="http://www.w3.org/2000/svg" xmlns:xlink="http://www.w3.org/1999/xlink">
    <!-- Generator: Sketch 52.2 (67145) - http://www.bohemiancoding.com/sketch -->
    <title>socail_github</title>
    <desc>Created with Sketch.</desc>
    <defs>
        <circle id="path-1" cx="22.5" cy="22.5" r="22.5"></circle>
    </defs>
    <g id="WEB-APP---THE-NIL-PROJECT" stroke="none" stroke-width="1" fill="none" fill-rule="evenodd">
        <g id="05" transform="translate(-1080.000000, -802.000000)">
            <g id="socail_github" transform="translate(1080.000000, 802.000000)">
                <g id="Rectangle">
                    <mask id="mask-2" fill="white">
                        <use xlink:href="#path-1"></use>
                    </mask>
                    <g id="Mask"></g>
                    <rect fill="#FFFFFF" mask="url(#mask-2)" x="0" y="0" width="45" height="45"></rect>
                </g>
                <path d="M41.9817761,11.2060308 C39.9697637,7.75868438 37.2405973,5.02941539 33.7935587,3.01760819 C30.346007,1.00569838 26.5823084,0 22.4997948,0 C18.4177943,0 14.6528642,1.00600621 11.2060308,3.01760819 C7.75868438,5.02931277 5.02962061,7.75868438 3.01760819,11.2060308 C1.0059036,14.6532747 0,18.4176916 0,22.4991791 C0,27.4019715 1.43040867,31.810688 4.29194429,35.7264574 C7.15317207,39.6425346 10.8494548,42.3523074 15.3804846,43.8560835 C15.9079093,43.9539752 16.2983473,43.8851227 16.5522089,43.6512703 C16.8061731,43.4171102 16.9330013,43.1238456 16.9330013,42.772708 C16.9330013,42.7141166 16.9279733,42.1869998 16.9182252,41.1907417 C16.9081693,40.1944836 16.9034491,39.3253615 16.9034491,38.583786 L16.2295974,38.700353 C15.7999617,38.7790562 15.2579661,38.8124051 14.6036106,38.8029648 C13.9495629,38.7938323 13.2705805,38.7252877 12.567587,38.5978438 C11.8642856,38.4715286 11.2101353,38.1785719 10.604623,37.7195893 C9.99941853,37.2606066 9.56978287,36.6598145 9.31581864,35.9181363 L9.02286191,35.2439767 C8.82759163,34.7951526 8.52016664,34.2965618 8.10017649,33.7500513 C7.68018634,33.2030277 7.25547605,32.8321886 6.82584039,32.6369184 L6.62071938,32.4900809 C6.48404044,32.392497 6.35721224,32.2748013 6.23992694,32.138225 C6.12274425,32.0016486 6.03501115,31.8649697 5.97641981,31.7280855 C5.91772585,31.5910988 5.96636385,31.4787388 6.12284686,31.3905953 C6.27932988,31.3024517 6.56212803,31.2596626 6.97247267,31.2596626 L7.5581809,31.3471905 C7.94882407,31.4254833 8.43202309,31.6593356 9.00839365,32.050184 C9.58445636,32.4407246 10.0580099,32.9484478 10.4291568,33.5731485 C10.8785965,34.3741364 11.4200791,34.9844714 12.0551436,35.4044616 C12.689695,35.8244517 13.3294797,36.0340876 13.9738819,36.0340876 C14.6182841,36.0340876 15.1748505,35.9852444 15.6437865,35.888071 C16.1122094,35.7903846 16.5516958,35.6435471 16.9620405,35.4483794 C17.1378145,34.1392579 17.616396,33.1335595 18.3973745,32.430566 C17.2842416,32.3135885 16.2834686,32.1374041 15.3945424,31.9031413 C14.5061293,31.6685707 13.5880615,31.2878809 12.6409544,30.7600457 C11.6933343,30.2329288 10.9072252,29.5783681 10.2824219,28.7974922 C9.65751597,28.0162058 9.14466213,26.9904981 8.74457868,25.7212926 C8.34428999,24.4515741 8.14409435,22.9868931 8.14409435,21.3268391 C8.14409435,18.963176 8.91573518,16.9517793 10.458709,15.2915202 C9.7359114,13.5144888 9.80414825,11.5223831 10.6636248,9.31540819 C11.230042,9.13942893 12.0700223,9.27149033 13.1831552,9.7107715 C14.2964934,10.1502579 15.1116417,10.5267406 15.6294209,10.8388858 C16.1472001,11.1509283 16.5620596,11.4153589 16.8746152,11.6298176 C18.6913573,11.122197 20.5661778,10.8683354 22.4995896,10.8683354 C24.4330013,10.8683354 26.3082322,11.122197 28.125077,11.6298176 L29.2383125,10.9270293 C29.9995896,10.4580933 30.8985716,10.0283551 31.9331039,9.63771189 C32.9682519,9.24727395 33.7597994,9.13973677 34.3069256,9.31571603 C35.185488,11.5227935 35.2637808,13.5147966 34.5407779,15.291828 C36.0836491,16.9520871 36.8555978,18.9639969 36.8555978,21.327147 C36.8555978,22.9872009 36.6546839,24.4564994 36.2550109,25.7359661 C35.8548248,27.015638 35.3375587,28.0403196 34.7030072,28.8121657 C34.0677375,29.5839091 33.2766004,30.2333393 32.3294934,30.7603535 C31.3821811,31.2877782 30.4638054,31.6684681 29.5753923,31.9030387 C28.6865688,32.1376093 27.6857958,32.3138964 26.5726628,32.4310791 C27.5879041,33.3096414 28.0956274,34.6964401 28.0956274,36.5908593 L28.0956274,42.7718871 C28.0956274,43.1230247 28.2177354,43.4161867 28.4621568,43.6504494 C28.7062703,43.8843018 29.0917828,43.9531543 29.6192076,43.85516 C34.150853,42.3515891 37.8471358,39.6417138 40.7082609,35.7256365 C43.5690783,31.8098672 45,27.4011506 45,22.4983582 C44.9989739,18.4173838 43.9925572,14.6532747 41.9817761,11.2060308 Z" id="Shape" fill="#000000" fill-rule="nonzero"></path>
            </g>
        </g>
    </g>
</svg>