<?xml version="1.0" encoding="UTF-8"?>
<svg width="45px" height="45px" viewBox="0 0 45 45" version="1.1" xmlns="http://www.w3.org/2000/svg" xmlns:xlink="http://www.w3.org/1999/xlink">
    <!-- Generator: Sketch 52.2 (67145) - http://www.bohemiancoding.com/sketch -->
    <title>socail_facebook</title>
    <desc>Created with Sketch.</desc>
    <g id="WEB-APP---THE-NIL-PROJECT" stroke="none" stroke-width="1" fill="none" fill-rule="evenodd">
        <g id="05" transform="translate(-943.000000, -802.000000)" fill="#3B5998">
            <g id="socail_facebook" transform="translate(943.000000, 802.000000)">
                <path d="M22.3434,-1.0658141e-14 C10.0233,-1.0658141e-14 -2.59348099e-13,10.0233 -2.59348099e-13,22.3434 C-2.59348099e-13,34.6626 10.0233,44.6868 22.3434,44.6868 C34.6626,44.6868 44.6868,34.6626 44.6868,22.3434 C44.6868,10.0233 34.6644,-1.0658141e-14 22.3434,-1.0658141e-14 L22.3434,-1.0658141e-14 Z M27.9,23.13 L24.2649,23.13 L24.2649,36.0864 L18.8784,36.0864 L18.8784,23.13 L16.3179,23.13 L16.3179,18.5508 L18.8784,18.5508 L18.8784,15.5889 C18.8784,13.4676 19.8864,10.1529 24.3144,10.1529 L28.3059,10.1682 L28.3059,14.6133 L25.4088,14.6133 C24.9372,14.6133 24.2667,14.8491 24.2667,15.8607 L24.2667,18.5517 L28.3707,18.5517 L27.9,23.13 L27.9,23.13 Z"></path>
            </g>
        </g>
    </g>
</svg>