<?xml version="1.0" encoding="UTF-8"?>
<svg width="45px" height="45px" viewBox="0 0 45 45" version="1.1" xmlns="http://www.w3.org/2000/svg" xmlns:xlink="http://www.w3.org/1999/xlink">
    <!-- Generator: Sketch 52.2 (67145) - http://www.bohemiancoding.com/sketch -->
    <title>socail_twitter</title>
    <desc>Created with Sketch.</desc>
    <defs>
        <circle id="path-1" cx="22.5" cy="22.5" r="22.5"></circle>
    </defs>
    <g id="WEB-APP---THE-NIL-PROJECT" stroke="none" stroke-width="1" fill="none" fill-rule="evenodd">
        <g id="05" transform="translate(-875.000000, -802.000000)">
            <g id="socail_twitter" transform="translate(875.000000, 802.000000)">
                <g id="Rectangle">
                    <mask id="mask-2" fill="white">
                        <use xlink:href="#path-1"></use>
                    </mask>
                    <g id="Mask"></g>
                    <rect fill="#0084FF" mask="url(#mask-2)" x="0" y="0" width="45" height="45"></rect>
                </g>
                <path d="M36.6995599,13.912104 C35.6800605,14.363852 34.5861524,14.6702223 33.4367998,14.8070004 C34.6103669,14.1042361 35.5087031,12.9895533 35.9344714,11.6654036 C34.8336384,12.3162085 33.6185219,12.7887764 32.3237917,13.0449525 C31.2870027,11.9389145 29.8122703,11.25 28.1765453,11.25 C25.0384335,11.25 22.4940075,13.794426 22.4940075,16.9308179 C22.4940075,17.3756409 22.5442017,17.8100993 22.6411503,18.2255481 C17.9192729,17.9883816 13.7322422,15.7261114 10.9299202,12.2885089 C10.4400626,13.1262862 10.1613919,14.1024709 10.1613919,15.1445102 C10.1613919,17.116025 11.1653216,18.8555783 12.6885283,19.8733125 C11.7572875,19.8421731 10.8814459,19.585997 10.1146828,19.1601835 L10.1146828,19.2311524 C10.1146828,21.9832802 12.0740678,24.2801749 14.6721278,24.802937 C14.19612,24.9310251 13.6941779,25.001994 13.1749008,25.001994 C12.8079715,25.001994 12.4531269,24.9656496 12.1052072,24.8964006 C12.828701,27.1552309 14.926584,28.7978356 17.4121709,28.8428701 C15.4683557,30.3660768 13.0173932,31.2713379 10.3552892,31.2713379 C9.8966163,31.2713379 9.44482307,31.2436383 9,31.1934441 C11.5150065,32.8083945 14.5008157,33.75 17.7098964,33.75 C28.162786,33.75 33.8765084,25.0920177 33.8765084,17.583388 L33.8574536,16.8477643 C34.9738564,16.0514912 35.9396764,15.0510466 36.6995599,13.912104 Z" id="Shape" fill="#FFFFFF" fill-rule="nonzero"></path>
            </g>
        </g>
    </g>
</svg>